<?xml version="1.0" encoding="utf-8"?>
<!-- Generator: Adobe Illustrator 27.3.1, SVG Export Plug-In . SVG Version: 6.00 Build 0)  -->
<svg version="1.1" id="Layer_1" xmlns="http://www.w3.org/2000/svg" xmlns:xlink="http://www.w3.org/1999/xlink" x="0px" y="0px"
	 viewBox="0 0 1920 1080" style="enable-background:new 0 0 1920 1080;" xml:space="preserve">
<style type="text/css">
	.st0{fill:#4F00B5;}
</style>
<g>
	<g>
		<polygon class="st0" points="170.83,362.38 34.41,498.81 34.41,584.28 77.4,627.28 246.85,627.28 324.57,549.56 324.57,505.06 
			233.81,595.81 65.87,595.81 65.87,511.84 183.86,393.85 324.57,393.85 324.57,362.38 		"/>
		<polygon class="st0" points="217.95,452.72 140.24,530.44 140.24,574.94 230.99,484.19 398.93,484.19 398.93,568.16 
			280.94,686.15 140.24,686.15 140.24,717.62 293.97,717.62 430.4,581.19 430.4,495.72 387.4,452.72 		"/>
	</g>
	<path class="st0" d="M786.09,445.36c-54.33,0-94.75,40.42-94.75,93.48c0,53.06,40.42,93.48,94.75,93.48
		c54.32,0,94.74-40.43,94.74-93.48C880.84,485.79,840.41,445.36,786.09,445.36z M786.09,604.54c-37.9,0-64.43-26.53-64.43-65.69
		c0-39.16,26.53-65.69,64.43-65.69c37.9,0,64.43,26.53,64.43,65.69C850.52,578.01,823.99,604.54,786.09,604.54z"/>
	<rect x="1065.26" y="450.41" class="st0" width="29.06" height="176.86"/>
	<path class="st0" d="M1199.17,450.41h-20.77l-38.61,38.61v138.25h59.38c55.58,0,94.74-39.16,94.74-88.43
		C1293.92,489.58,1254.75,450.41,1199.17,450.41z M1199.17,599.48h-30.32V478.21h30.32c39.16,0,64.43,25.27,64.43,60.64
		C1263.6,574.22,1238.33,599.48,1199.17,599.48z"/>
	<rect x="1331.81" y="450.41" class="st0" width="29.05" height="176.86"/>
	<path class="st0" d="M1522.56,561.59h31.58l-0.04,40.43c0,0-43.75-0.26-60.6-0.26c-37.9,0-64.43-24.97-64.43-62.92
		c0-39.16,26.53-65.69,64.43-65.69c45.48,0,59.38,36.63,59.38,36.63h29.05c0,0-15.16-64.43-88.43-64.43
		c-53.06,0-94.75,39.16-94.75,93.48c0,54.33,38.91,90.71,94.75,90.71h51.08l38.61-38.61v-57.15h-60.64V561.59z"/>
	<polygon class="st0" points="1648.94,627.28 1622.42,627.28 1622.42,450.41 1673.27,450.41 1718.43,600.75 1724.75,600.75 
		1769.91,450.41 1819.49,450.41 1819.49,627.28 1792.96,627.28 1792.96,503.48 1792.96,479.47 1787.59,479.47 1743.69,627.28 
		1698.22,627.28 1654.32,479.47 1648.95,479.47 	"/>
	<polygon class="st0" points="947.78,450.42 918.73,450.42 918.73,588.51 957.18,627.28 1037.48,627.28 1037.48,599.48 
		947.78,599.48 	"/>
	<path class="st0" d="M559.89,497.16c0-13.9,11.37-25.26,35.37-25.26c29.24,0,41.73,22.69,41.73,22.69l19.08-19.08
		c-8.88-14.2-26.47-30.14-60.82-30.14c-40.42,0-65.69,25.26-65.69,53.06c0,63.17,106.12,42.95,106.12,80.85
		c0,15.16-11.37,26.53-39.16,26.53c-32.67,0-46.75-29.04-46.75-29.04l-19.78,19.78c9.03,16.39,27.83,35.79,66.54,35.79
		c44.22,0,69.48-25.26,69.48-54.32C666.01,516.11,559.89,535.06,559.89,497.16"/>
	<polygon class="st0" points="1843.27,606.74 1835.15,606.74 1835.15,603 1855.33,603 1855.33,606.74 1847.26,606.74 
		1847.26,627.28 1843.27,627.28 	"/>
	<polygon class="st0" points="1858.54,603 1864.71,603 1871.68,623.64 1872.42,623.64 1879.38,603 1885.59,603 1885.59,627.28 
		1881.6,627.28 1881.6,608.72 1881.78,607.19 1881.57,607.19 1874.85,627.28 1869.25,627.28 1862.53,607.19 1862.36,607.19 
		1862.53,608.72 1862.53,627.28 1858.54,627.28 	"/>
</g>
</svg>
