<svg viewBox="0 0 1000 1000" xmlns="http://www.w3.org/2000/svg" xmlns:xlink="http://www.w3.org/1999/xlink" id="Layer_1" xml:space="preserve" overflow="hidden"><g><path d="M851.8 320.23C852.01 235.41 787.39 165.29 704.73 156.84L704.83 115.25 296.23 114.26 296.13 155.85C213.4 163.87 148.42 233.69 148.21 318.53 148.1 362.3 165.05 403.48 195.92 434.51 222.92 461.64 257.75 478.16 295.34 481.94L295.25 519.51 404.07 628.86C411.57 637.46 424.45 654.67 431.57 678.04 444.58 720.77 433.08 766.14 397.4 812.97L300.58 812.75 300 884.83 699.43 885.75 700 813.67 600.3 813.44C564.86 766.45 553.58 721.03 566.79 678.37 574.02 655.01 587 637.86 594.53 629.3L703.84 520.5 703.93 482.92C741.52 479.3 776.4 462.96 803.52 435.98 834.55 405.11 851.69 364 851.8 320.23ZM246.95 383.72C229.64 366.33 220.15 343.24 220.2 318.71 220.31 273.63 253.04 236.12 295.94 228.49L295.5 409.28C277.2 405.96 260.35 397.18 246.95 383.72ZM631.92 490.51 552.83 569.22 552.78 569.16C551.6 570.19 547.44 573.94 541.77 580.22L511.6 610.25 487.06 610.19 457.07 580.06C451.41 573.73 447.25 569.94 446.08 568.9L446.03 568.96 367.32 489.87 368.06 186.43 632.67 187.07 631.92 490.51ZM704.11 410.26 704.55 229.48C747.39 237.33 779.91 275 779.8 320.05 779.69 365.12 746.99 402.62 704.11 410.26Z" fill="#4F00B5"></path><rect x="308.77" y="321.87" width="267.68" height="72" fill="#4F00B5" transform="matrix(0.00241427 -1 1 0.00241427 83.6678 799.608)"></rect></g></svg>