<svg viewBox="0 0 1000 1000" xmlns="http://www.w3.org/2000/svg" xmlns:xlink="http://www.w3.org/1999/xlink" id="Layer_1" xml:space="preserve" overflow="hidden">
<g><path d="M706.26 379.01 795.56 289.7 795.56 220.73 729.48 154.66 729.23 154.66 670.8 96.23 502.3 96.23 333.81 96.22 269.85 160.18 269.85 160.19 209.3 220.73 209.3 289.7 298.6 379.01C233.44 435.92 192.2 519.57 192.2 612.68 192.2 783.74 331.37 922.91 502.43 922.91 673.49 922.91 812.65 783.74 812.65 612.68 812.65 519.58 771.42 435.93 706.26 379.01ZM422.91 312.8 339.27 229.17 665.34 229.17 581.76 312.75C556.43 306.05 529.85 302.46 502.44 302.46 474.95 302.45 448.3 306.06 422.91 312.8ZM734.66 233.49 756.4 255.23 663.8 347.83C654.7 342.27 645.29 337.16 635.61 332.54L734.66 233.49ZM355.39 148.3 481 148.3 523.61 148.3 649.23 148.3 678.45 177.52 326.16 177.52 355.39 148.3ZM248.46 255.23 270.07 233.62 369.07 332.62C359.45 337.22 350.1 342.3 341.06 347.83L248.46 255.23ZM502.43 849.91C371.62 849.91 265.2 743.49 265.2 612.68 265.2 481.87 371.62 375.45 502.43 375.45 633.23 375.45 739.65 481.87 739.65 612.68 739.65 743.49 633.24 849.91 502.43 849.91Z" class="MsftOfcThm_Background2_Fill_v2" fill="#4F00B5"></path><path d="M655.71 527.73 568.01 527.73 540.9 444.28 463.97 444.28 436.86 527.73 349.15 527.73 325.37 600.92 396.32 652.47 369.24 735.82 431.53 781.08 502.43 729.55 573.34 781.08 635.63 735.82 608.55 652.47 679.49 600.92Z" class="MsftOfcThm_Background2_Fill_v2" fill="#4F00B5"></path></g></svg>