<svg viewBox="0 0 1000 1000" xmlns="http://www.w3.org/2000/svg" xmlns:xlink="http://www.w3.org/1999/xlink" id="Layer_1" xml:space="preserve" overflow="hidden"><g><g><path d="M930.22 433.44 930.04 433.51 930.04 145.31 505.41 145.31 364.79 285.94 70.14 285.94 70.14 575.38 69.76 575.23 70.71 854.69 218.49 706.9 638.58 706.9 638.58 566.28 781.7 566.28 929.49 714.06 930.26 486.29 930.22 433.44ZM567.85 636.17 189.19 636.17 140.85 684.51 140.83 678.34 140.86 678.35 140.86 356.66 465.46 356.66 567.84 459.04 567.84 636.17ZM831.29 445.58 630.82 445.58 630.82 402.57 831.29 402.57 831.29 445.58ZM831.29 328.83 533.66 328.83 533.66 285.82 831.29 285.82 831.29 328.83Z" fill="#4F00B5"></path></g><g><rect x="205.95" y="416.52" width="297.63" height="43.01" fill="#4F00B5"></rect></g><g><rect x="205.95" y="533.72" width="297.63" height="43.01" fill="#4F00B5"></rect></g></g></svg>