<svg viewBox="0 0 1000 1000" xmlns="http://www.w3.org/2000/svg" xmlns:xlink="http://www.w3.org/1999/xlink" id="Layer_1" xml:space="preserve" overflow="hidden"><path d="M930.33 432.29 930.33 144.42 505.05 144.42 364.52 284.95 69.67 284.95 69.67 572.81 69.29 572.65 70.24 855.57 218.86 706.96 639.06 706.96 639.06 566.43 781.15 566.43 929.77 715.04 930.72 432.12 930.33 432.29ZM567.05 634.96 189.03 634.96 141.65 682.34 141.64 679.82 141.66 679.83 141.66 356.95 465.12 356.95 567.04 458.87 567.04 634.96ZM858.34 541.81 810.96 494.43 639.05 494.43 639.05 429.05 494.95 284.95 466.34 284.95 534.87 216.42 858.33 216.42 858.33 539.3 858.35 539.29 858.34 541.81Z" fill="#4F00B5"></path></svg>