<svg width="73.99" height="43.71" viewBox="0 0 73.99 43.71" xmlns="http://www.w3.org/2000/svg" xmlns:xlink="http://www.w3.org/1999/xlink" overflow="visible"><defs></defs><g><defs><rect x="0" y="0" width="73.99" height="43.71" id="SVGID_1_"></rect></defs><clipPath id="SVGID_2_"><use width="100%" height="100%" xlink:href="#SVGID_1_" overflow="visible"></use></clipPath><path d="M37.05 0C30.8 0 25.72 5.08 25.72 11.33 25.72 17.58 30.8 22.66 37.05 22.66 43.3 22.66 48.38 17.58 48.38 11.33 48.38 5.08 43.29 0 37.05 0M37.05 18.57C33.05 18.57 29.8 15.32 29.8 11.32 29.8 7.32 33.05 4.07 37.05 4.07 41.05 4.07 44.3 7.32 44.3 11.32 44.29 15.32 41.04 18.57 37.05 18.57" fill="#4F00B5" clip-path="url(#SVGID_2_)"></path><path d="M55.81 43.71 55.81 35 49.68 28.88 24.41 28.88 18.28 35 18.28 43.71 22.34 43.71 22.34 32.93 51.76 32.93 51.76 43.71Z" fill="#4F00B5" clip-path="url(#SVGID_2_)"></path><path d="M12.38 17.8C16.67 17.8 20.16 14.31 20.16 10.02 20.16 5.73 16.67 2.24 12.38 2.24 8.09 2.24 4.6 5.73 4.6 10.02 4.6 14.31 8.09 17.8 12.38 17.8M12.38 6.3C14.43 6.3 16.1 7.97 16.1 10.02 16.1 12.07 14.43 13.74 12.38 13.74 10.33 13.74 8.66 12.07 8.66 10.02 8.67 7.97 10.33 6.3 12.38 6.3" fill="#4F00B5" clip-path="url(#SVGID_2_)"></path><path d="M24.57 24.16 20.52 20.11 4.24 20.11 0 24.35 0 30.83 4.05 30.83 4.05 24.16 18.28 24.16 20.72 24.16Z" fill="#4F00B5" clip-path="url(#SVGID_2_)"></path><path d="M61.6 17.8C65.89 17.8 69.38 14.31 69.38 10.02 69.38 5.73 65.89 2.24 61.6 2.24 57.31 2.24 53.82 5.73 53.82 10.02 53.82 14.31 57.31 17.8 61.6 17.8M61.6 6.3C63.65 6.3 65.32 7.97 65.32 10.02 65.32 12.07 63.65 13.74 61.6 13.74 59.55 13.74 57.88 12.07 57.88 10.02 57.89 7.97 59.55 6.3 61.6 6.3" fill="#4F00B5" clip-path="url(#SVGID_2_)"></path><path d="M69.74 20.11 53.46 20.11 49.42 24.16 53.27 24.16 58.53 24.16 69.94 24.16 69.94 30.83 73.99 30.83 73.99 24.35Z" fill="#4F00B5" clip-path="url(#SVGID_2_)"></path></g></svg>