<svg width="35.64" height="40.5" viewBox="0 0 35.64 40.5" xmlns="http://www.w3.org/2000/svg" xmlns:xlink="http://www.w3.org/1999/xlink" overflow="visible"><defs></defs><g><defs><rect x="0" y="0" width="35.64" height="40.5" id="SVGID_1_"></rect></defs><clipPath id="SVGID_2_"><use width="100%" height="100%" xlink:href="#SVGID_1_" overflow="visible"></use></clipPath><path d="M17.83 21.14C12 21.14 7.26 16.4 7.26 10.57 7.26 4.74 12 0 17.83 0 23.66 0 28.4 4.74 28.4 10.57 28.41 16.4 23.66 21.14 17.83 21.14M17.83 4.08C14.25 4.08 11.34 6.99 11.34 10.57 11.34 14.15 14.25 17.06 17.83 17.06 21.41 17.06 24.32 14.15 24.32 10.57 24.32 6.99 21.41 4.08 17.83 4.08" fill="#4F00B5" clip-path="url(#SVGID_2_)"></path><path d="M5.44 26.34 0 31.78 0 40.5 4.08 40.5 4.08 30.42 31.56 30.42 31.56 40.5 35.64 40.5 35.64 31.78 30.19 26.34Z" fill="#4F00B5" clip-path="url(#SVGID_2_)"></path></g></svg>