<svg viewBox="0 0 1000 1000" xmlns="http://www.w3.org/2000/svg" xmlns:xlink="http://www.w3.org/1999/xlink" id="Layer_1" xml:space="preserve" overflow="hidden"><g><path d="M173.03 484.23C176.79 405.4 209.63 331.22 265.49 275.36 266.34 274.51 267.21 273.68 268.06 272.84L254.81 319.8 324.11 339.35 373.75 163.37 197.78 113.72 178.23 183.01 240.65 200.62C231.64 208.14 222.93 216.08 214.57 224.44 146.02 293 105.73 384.04 101.11 480.8 96.52 576.88 127.35 670.69 187.9 744.93L243.7 699.42C194.39 638.97 169.29 562.54 173.03 484.23Z" fill="#4F00B5"></path><path d="M713.64 723.52C657.78 779.38 583.61 812.21 504.77 815.98 458.21 818.21 412.31 810.23 370.05 793.04L419.17 785.39 408.09 714.25 227.43 742.38 255.57 923.04 326.71 911.96 316.73 847.92C370.06 874.38 429.08 888.35 489.46 888.35 495.69 888.35 501.94 888.2 508.2 887.9 604.96 883.28 696 842.99 764.54 774.44 797.88 741.11 824.57 702.61 843.87 659.99L778.28 630.28C762.58 664.98 740.83 696.34 713.64 723.52Z" fill="#4F00B5"></path><path d="M569.99 192.86C624.14 207.01 673.82 235.53 713.64 275.36 752.18 313.9 780.24 361.83 794.78 413.97 800.57 434.72 804.2 456.01 805.68 477.45L772.32 433.05 714.76 476.3 824.59 622.47 970.77 512.64 927.52 455.08 878.35 492.02C877.73 459.15 872.99 426.36 864.13 394.62 846.26 330.57 811.83 271.72 764.55 224.44 715.69 175.57 654.7 140.56 588.18 123.19 523.67 106.34 455.46 106.34 390.94 123.19L409.13 192.85C461.76 179.12 517.38 179.12 569.99 192.86Z" fill="#4F00B5"></path></g></svg>