<svg width="35.87" height="34.11" viewBox="0 0 35.87 34.11" xmlns="http://www.w3.org/2000/svg" xmlns:xlink="http://www.w3.org/1999/xlink" overflow="visible"><defs></defs><g><defs><rect x="0" y="0" width="35.87" height="34.11" id="SVGID_1_"></rect></defs><clipPath id="SVGID_2_"><use width="100%" height="100%" xlink:href="#SVGID_1_" overflow="visible"></use></clipPath><path d="M11.82 19.58 1.93 12.39 14.16 12.39 17.94 0.76 21.72 12.39 33.95 12.39 24.06 19.58 27.84 31.21 17.95 24.02 8.06 31.21 11.82 19.58ZM14.04 0 11.29 8.45 2.41 8.45 0 15.87 7.19 21.09 4.45 29.53 10.76 34.11 17.94 28.89 25.12 34.11 31.43 29.53 28.69 21.09 35.88 15.87 33.47 8.46 24.59 8.46 21.83 0 14.04 0Z" fill="#4F00B5" clip-path="url(#SVGID_2_)"></path></g></svg>