<svg viewBox="0 0 1000 1000" xmlns="http://www.w3.org/2000/svg" xmlns:xlink="http://www.w3.org/1999/xlink" id="Layer_1" xml:space="preserve" overflow="hidden"><g><g><g><g><g><path d="M389.03 687.24 389.03 858.36 427.6 819.79 427.6 726.05Z" fill="#4F00B5"></path></g></g></g><g><g><g><path d="M611.5 687.24 611.5 858.36 572.93 819.79 572.93 726.05Z" fill="#4F00B5"></path></g></g></g><g><g><g><rect x="480.98" y="753.45" width="38.57" height="158.56" fill="#4F00B5"></rect></g></g></g></g><g><ellipse cx="500" cy="296.48" rx="47.1" ry="47.14" fill="#4F00B5"></ellipse><path d="M857.55 635.65 697.39 475.37 696.63 476.13 696.63 475.51 668.33 475.51 668.33 345.2C668.33 294.55 653.37 233.67 629.29 186.32 597.04 122.91 551.13 87.99 500 87.99 448.87 87.99 402.96 122.91 370.71 186.32 346.63 233.67 331.67 294.56 331.67 345.2L331.67 475.5 303.37 475.5 303.37 476.12 302.62 475.36 142.45 635.65 161.59 654.81 158.85 657.55 164.3 657.53 191.26 684.51 307.99 683.98 364.58 625.76 464.22 725.48 535.77 725.48 635.41 625.76 692 683.99 808.73 684.52 835.69 657.54 841.14 657.56 838.4 654.82 857.55 635.65ZM683.38 543.5 766.03 626.21 716.65 625.99 668.35 576.3 668.35 543.5 683.38 543.5ZM431.26 217.16C458.33 163.94 485.94 155.99 500 155.99 514.05 155.99 541.67 163.94 568.74 217.16 587.97 254.97 600.39 305.23 600.39 345.2L600.39 554.64 399.61 554.64 399.61 345.2C399.61 305.23 412.04 254.97 431.26 217.16ZM331.66 543.5 331.66 576.29 283.36 625.98 233.97 626.2 316.62 543.49 331.66 543.49ZM507.63 657.46 492.37 657.46 457.58 622.64 542.43 622.64 507.63 657.46Z" fill="#4F00B5"></path></g></g></svg>