<svg viewBox="0 0 1000 1000" xmlns="http://www.w3.org/2000/svg" xmlns:xlink="http://www.w3.org/1999/xlink" id="Layer_1" xml:space="preserve" overflow="hidden"><g><path d="M833.65 464.09 833.65 392.26 762.93 392.26 762.93 306.95 762.93 238.19 694.14 238.19 615.08 238.19 615.08 166.36 543.25 166.36 543.25 238.19 471.42 238.19 471.42 166.36 399.59 166.36 399.59 238.19 328.78 238.19 237.07 329.93 237.07 392.26 166.35 392.26 166.35 464.09 237.07 464.09 237.07 535.92 166.35 535.92 166.35 607.75 237.07 607.75 237.07 693.06 237.07 761.82 305.86 761.82 399.59 761.82 399.59 833.65 471.42 833.65 471.42 761.82 543.25 761.82 543.25 833.65 615.08 833.65 615.08 761.82 671.21 761.82 762.92 670.08 762.92 607.75 833.64 607.75 833.64 535.92 762.92 535.92 762.92 464.09 833.65 464.09ZM305.86 693.06 305.86 306.94 694.14 306.94 694.14 693.06 305.86 693.06Z" fill="#4F00B5"></path><path d="M377.38 621.93 377.38 378.07 622.61 378.07 622.61 621.94 377.38 621.94Z" fill="#4F00B5"></path></g></svg>