<svg width="39.56" height="39.56" viewBox="0 0 39.56 39.56" xmlns="http://www.w3.org/2000/svg" xmlns:xlink="http://www.w3.org/1999/xlink" overflow="visible"><defs></defs><g><defs><rect x="0" y="0" width="39.56" height="39.56" id="SVGID_1_"></rect></defs><clipPath id="SVGID_2_"><use width="100%" height="100%" xlink:href="#SVGID_1_" overflow="visible"></use></clipPath><path d="M0 21.98 0 26.37 13.18 26.37 13.18 39.56 17.58 39.56 17.58 27.84 11.72 21.98Z" fill="#4F00B5" clip-path="url(#SVGID_2_)"></path><path d="M27.84 21.98 21.98 27.84 21.98 39.56 26.37 39.56 26.37 26.37 39.56 26.37 39.56 21.98Z" fill="#4F00B5" clip-path="url(#SVGID_2_)"></path><path d="M21.98 0 21.98 11.72 27.84 17.58 39.56 17.58 39.56 13.18 26.37 13.18 26.37 0Z" fill="#4F00B5" clip-path="url(#SVGID_2_)"></path><path d="M13.18 0 13.18 13.18 0 13.18 0 17.58 11.72 17.58 17.58 11.72 17.58 0Z" fill="#4F00B5" clip-path="url(#SVGID_2_)"></path></g></svg>