<svg width="38.42" height="38.42" viewBox="0 0 38.42 38.42" xmlns="http://www.w3.org/2000/svg" xmlns:xlink="http://www.w3.org/1999/xlink" overflow="visible"><defs></defs><g><defs><rect x="0" y="0" width="38.42" height="38.42" id="SVGID_1_"></rect></defs><clipPath id="SVGID_2_"><use width="100%" height="100%" xlink:href="#SVGID_1_" overflow="visible"></use></clipPath><path d="M38.29 17.01 27.3 17.01C27.12 12.9 26.43 8.81 25.2 5.67 29.37 7.53 32.53 11.25 33.6 15.78L37.11 12.27C34.33 5.1 27.35 0 19.21 0 8.62 0 0 8.62 0 19.21 0 19.95 0.05 20.69 0.13 21.41L11.11 21.41C11.29 25.52 11.98 29.61 13.21 32.75 9.04 30.89 5.88 27.16 4.8 22.63L1.3 26.14C4.09 33.32 11.06 38.42 19.21 38.42 29.8 38.42 38.42 29.8 38.42 19.21 38.42 18.46 38.37 17.73 38.29 17.01M22.9 17.01 15.52 17.01C15.89 9.09 18.19 4.6 19.22 4.4L19.23 4.4C20.24 4.6 22.53 9.09 22.9 17.01M13.21 5.68C11.98 8.81 11.29 12.9 11.11 17.01L4.58 17.01C5.34 11.94 8.68 7.71 13.21 5.68M15.52 21.41 22.9 21.41C22.53 29.33 20.23 33.82 19.2 34.02L19.2 34.02C18.18 33.81 15.89 29.33 15.52 21.41M25.21 32.73C26.44 29.6 27.13 25.51 27.31 21.4L33.84 21.4C33.08 26.48 29.74 30.71 25.21 32.73" fill="#4F00B5" clip-path="url(#SVGID_2_)"></path></g></svg>