<svg viewBox="0 0 1080 1080" xmlns="http://www.w3.org/2000/svg" xmlns:xlink="http://www.w3.org/1999/xlink" id="Layer_1" xml:space="preserve" overflow="hidden">
<g><path d="M978.86 426.77 926.8 426.77 926.8 372.52 101.14 372.52 101.14 707.48 926.81 707.48 926.81 595.94 978.87 595.94 978.87 426.77ZM872.48 653.15 155.47 653.15 155.47 426.85 872.48 426.85 872.48 653.15Z" class="st0 MsftOfcThm_Background2_Fill_v2" stroke="none" stroke-width="1" stroke-linecap="butt" stroke-linejoin="miter" stroke-miterlimit="4" fill="#4F00B5" fill-opacity="1"></path><rect x="468.91" y="455.62" width="84.09" height="65.45" class="st0 MsftOfcThm_Background2_Fill_v2" stroke="none" stroke-width="1" stroke-linecap="butt" stroke-linejoin="miter" stroke-miterlimit="4" fill="#4F00B5" fill-opacity="1"></rect><rect x="468.91" y="557.53" width="84.09" height="65.45" class="st0 MsftOfcThm_Background2_Fill_v2" stroke="none" stroke-width="1" stroke-linecap="butt" stroke-linejoin="miter" stroke-miterlimit="4" fill="#4F00B5" fill-opacity="1"></rect><path d="M274.6 521.07 274.6 455.62 190.51 455.62 190.51 521.07 190.51 622.99 274.6 622.99Z" class="st0 MsftOfcThm_Background2_Fill_v2" stroke="none" stroke-width="1" stroke-linecap="butt" stroke-linejoin="miter" stroke-miterlimit="4" fill="#4F00B5" fill-opacity="1"></path><rect x="309.37" y="455.62" width="125.45" height="167.37" class="st0 MsftOfcThm_Background2_Fill_v2" stroke="none" stroke-width="1" stroke-linecap="butt" stroke-linejoin="miter" stroke-miterlimit="4" fill="#4F00B5" fill-opacity="1"></rect><rect x="711" y="455.62" width="125.45" height="167.37" class="st0 MsftOfcThm_Background2_Fill_v2" stroke="none" stroke-width="1" stroke-linecap="butt" stroke-linejoin="miter" stroke-miterlimit="4" fill="#4F00B5" fill-opacity="1"></rect><rect x="590.85" y="456.17" width="81.81" height="48.29" class="st0 MsftOfcThm_Background2_Fill_v2" stroke="none" stroke-width="1" stroke-linecap="butt" stroke-linejoin="miter" stroke-miterlimit="4" fill="#4F00B5" fill-opacity="1"></rect><rect x="590.85" y="515.85" width="81.81" height="48.29" class="st0 MsftOfcThm_Background2_Fill_v2" stroke="none" stroke-width="1" stroke-linecap="butt" stroke-linejoin="miter" stroke-miterlimit="4" fill="#4F00B5" fill-opacity="1"></rect><rect x="590.85" y="575.53" width="81.81" height="48.29" class="st0 MsftOfcThm_Background2_Fill_v2" stroke="none" stroke-width="1" stroke-linecap="butt" stroke-linejoin="miter" stroke-miterlimit="4" fill="#4F00B5" fill-opacity="1"></rect></g></svg>