<svg viewBox="0 0 1000 1000" xmlns="http://www.w3.org/2000/svg" xmlns:xlink="http://www.w3.org/1999/xlink" id="Layer_1" xml:space="preserve" overflow="hidden"><path d="M914.95 375.24 500 223.35 85.05 375.24 85.05 468.94 170.5 501.98 170.5 706.03 156.73 719.8 156.73 747.54 170.5 747.54 170.5 776.64 240.5 776.64 240.5 747.54 254.27 747.54 254.27 719.8 240.5 706.03 240.5 545.23 261.87 537.32 280.54 544.54 256.95 660.23 272.91 673.62C275.05 675.41 326.17 717.75 407.48 738.91 437.98 746.84 468.83 750.82 499.67 750.82 517.25 750.82 534.83 749.53 552.35 746.94 612.1 738.11 670.86 714.13 726.99 675.68L746.14 662.56 721.88 543.6 914.94 468.94 914.94 375.24ZM543.92 677.41C505.38 683.36 466.34 681.49 427.88 671.86 385.36 661.22 352.6 643.26 334.25 631.49L346.76 570.15 500 629.41 655.67 569.21 668.15 630.4C627.49 655.17 585.8 670.95 543.92 677.41ZM500 554.36 361.06 500.63 513.46 444.24 513.45 444.2C531.33 437.37 540.43 417.41 533.8 399.41 527.11 381.27 506.99 371.99 488.85 378.68L488.86 378.71 262.43 462.49 159.31 422.6 500 297.89 840.69 422.6 500 554.36Z" fill="#4F00B5"></path></svg>