<svg viewBox="0 0 1000 1000" xmlns="http://www.w3.org/2000/svg" xmlns:xlink="http://www.w3.org/1999/xlink" id="Layer_1" xml:space="preserve" overflow="hidden"><g><path d="M196.28 624.49 196.28 621.53 194.8 623.01Z" fill="#4F00B5"></path><path d="M723.54 107.29 554.68 107.29 500 161.97 445.31 107.29 276.47 107.29 111.83 260.27 111.83 697.61 306.47 891.64 469.97 892.71 500 862.67 530.03 892.71 693.53 891.64 888.17 697.61 888.17 260.27 723.54 107.29ZM464.03 672.79 345.95 672.79 245.48 572.33 243.5 574.31 243.5 671.71 316.25 744.46 464.03 744.46 464.03 797.28 440.47 820.84 336.29 820.16 183.5 667.87 183.5 491.19 286.81 491.19 387.28 591.65 389.25 589.68 389.25 492.27 316.51 419.52 183.51 419.52 183.51 291.5 304.63 178.96 372.89 178.96 323.5 228.36 374.18 279.04 444.95 208.26 464.05 227.36 464.05 672.79ZM816.5 667.87 761.12 723.07 696.93 658.88 646.25 709.56 710.36 773.67 663.71 820.17 559.53 820.85 535.7 797.02 535.7 565.28 683.75 565.28 756.49 492.53 756.49 395.13 754.51 393.15 654.06 493.61 535.71 493.61 535.71 227.62 584.38 178.96 695.39 178.96 761.43 240.33 683.5 240.33 610.75 313.09 610.75 410.49 612.73 412.47 713.2 312 816.5 312 816.5 667.87Z" fill="#4F00B5"></path></g></svg>