<svg viewBox="0 0 1000 1000" xmlns="http://www.w3.org/2000/svg" xmlns:xlink="http://www.w3.org/1999/xlink" id="Layer_1" xml:space="preserve" overflow="hidden"><g><g><path d="M791.69 393.51C806.48 379.68 815.78 360.06 815.78 338.21 815.78 296.36 781.86 262.43 740.01 262.43 698.16 262.43 664.24 296.36 664.24 338.21 664.24 360.06 673.54 379.69 688.33 393.51L564.34 393.51 564.34 498C569.63 496.83 575.12 496.16 580.76 496.16 622.61 496.16 656.53 530.09 656.53 571.94 656.53 613.78 622.61 647.71 580.76 647.71 575.11 647.71 569.63 647.04 564.34 645.87L564.34 737.57 781.62 737.57 935.7 583.49 935.7 393.51 791.69 393.51Z" fill="#4F00B5"></path></g><g><path d="M463.68 493.37C456.28 493.37 449.16 494.52 442.41 496.5L442.41 393.47 408.38 393.47 303.88 393.47C305.05 398.77 305.72 404.25 305.72 409.9 305.72 451.75 271.79 485.67 229.94 485.67 188.1 485.67 154.17 451.74 154.17 409.9 154.17 404.25 154.84 398.77 156.01 393.47L64.31 393.47 64.31 583.46 66.09 737.54 408.38 737.54 408.38 737.58 442.41 737.58 442.41 641.79C449.16 643.78 456.28 644.92 463.68 644.92 505.53 644.92 539.46 611 539.46 569.15 539.45 527.29 505.53 493.37 463.68 493.37Z" fill="#4F00B5"></path></g></g></svg>