<svg viewBox="0 0 1000 1000" xmlns="http://www.w3.org/2000/svg" xmlns:xlink="http://www.w3.org/1999/xlink" id="Layer_1" xml:space="preserve" overflow="hidden"><g><path d="M541.27 603.86 541.17 557.84 505.76 557.92 501.13 546.8 526.11 521.71 493.5 489.24 468.53 514.32 457.38 509.73 457.31 474.34 411.29 474.44 411.36 509.82 400.22 514.46 375.15 489.5 342.68 522.11 367.76 547.08 363.17 558.23 327.78 558.3 327.88 604.32 363.29 604.25 367.92 615.37 342.93 640.46 375.54 672.93 400.51 647.85 411.66 652.44 411.73 687.83 457.75 687.73 457.67 652.35 468.81 647.71 493.88 672.68 526.35 640.07 501.27 615.1 505.86 603.95 541.27 603.86ZM476.05 621.6 475.81 622.19 434.67 639.33 434.08 639.09 434.09 639.05 393.43 622.31 376.31 581.22 393.05 540.56 393.01 540.54 393.25 539.95 434.39 522.81 434.98 523.05 434.97 523.09 475.63 539.83 492.75 580.92 476.01 621.58 476.05 621.6Z" fill="#4F00B5"></path><path d="M681.45 511.65 673.96 483.54 652.33 489.31 647.7 483.26 658.92 463.89 633.74 449.31 622.53 468.67 614.97 467.67 609.21 446.05 581.1 453.54 586.86 475.15 580.8 479.79 561.44 468.58 546.86 493.76 566.22 504.97 565.21 512.53 543.59 518.29 551.08 546.4 572.71 540.63 577.34 546.68 566.12 566.05 591.3 580.63 602.51 561.27 610.07 562.27 615.83 583.89 643.94 576.4 638.18 554.79 644.24 550.15 663.6 561.36 678.18 536.18 658.82 524.97 659.82 517.41 681.45 511.65ZM644.45 533.03 644.4 533.43 622.02 550.55 621.62 550.5 621.62 550.48 594.07 546.82 576.97 524.47 580.63 496.92 580.61 496.92 580.66 496.52 603.04 479.4 603.44 479.45 603.44 479.47 630.99 483.13 648.09 505.48 644.43 533.03 644.45 533.03Z" fill="#4F00B5"></path><path d="M829.16 220.09 195.34 220.09 97.3 318.17 97.3 706.4 97.3 779.91 170.84 779.91 804.66 779.91 902.71 681.83 902.71 293.6 902.71 220.09 829.16 220.09ZM170.84 706.4 170.84 417.98 829.16 417.98 829.16 706.4 170.84 706.4ZM829.16 379.98 170.84 379.98 170.84 293.6 829.16 293.6 829.16 379.98Z" fill="#4F00B5"></path><rect x="748.29" y="317.75" width="51.87" height="38" fill="#4F00B5"></rect><rect x="670.76" y="317.75" width="51.87" height="38" fill="#4F00B5"></rect></g></svg>