<svg viewBox="0 0 1000 1000" xmlns="http://www.w3.org/2000/svg" xmlns:xlink="http://www.w3.org/1999/xlink" id="Layer_1" xml:space="preserve" overflow="hidden"><g><g><path d="M635.75 489.05 695.23 464.41 663.21 387.11 603.77 411.73 588.26 396.23 612.88 336.79 535.58 304.77 510.96 364.2 489.02 364.2 464.4 304.77 387.1 336.79 411.72 396.23 396.22 411.73 336.78 387.11 304.76 464.41 364.24 489.05 364.24 510.95 304.76 535.58 336.78 612.88 396.22 588.26 411.72 603.76 387.1 663.2 464.4 695.22 489.02 635.79 510.96 635.79 535.58 695.22 612.88 663.2 588.26 603.76 603.77 588.25 663.21 612.87 695.23 535.57 635.75 510.94 635.75 489.05ZM541.34 597.04 540.52 597.86 459.49 597.86 458.67 597.04 458.72 596.99 402.19 540.46 402.19 459.53 458.72 403 458.67 402.95 459.49 402.13 540.52 402.13 541.34 402.95 541.29 403 597.82 459.53 597.82 540.46 541.29 596.99 541.34 597.04Z" fill="#4F00B5"></path><g><g><path d="M784.32 259.93 682.4 361.8 747.93 361.8 747.93 742.91 475.79 742.91 475.79 815.61 723.7 815.61 820.67 718.62 820.67 361.8 886.2 361.8Z" fill="#4F00B5"></path></g><g><path d="M215.68 740.07 317.6 638.2 252.07 638.2 252.07 257.09 524.21 257.09 524.21 184.39 276.3 184.39 179.33 281.38 179.33 638.2 113.8 638.2Z" fill="#4F00B5"></path></g></g></g></g></svg>