<svg width="42.05" height="37.72" viewBox="0 0 42.05 37.72" xmlns="http://www.w3.org/2000/svg" xmlns:xlink="http://www.w3.org/1999/xlink" overflow="visible"><defs></defs><g><defs><rect x="0" y="0" width="42.05" height="37.72" id="SVGID_1_"></rect></defs><clipPath id="SVGID_2_"><use width="100%" height="100%" xlink:href="#SVGID_1_" overflow="visible"></use></clipPath><path d="M14.49 0 0 14.49 0 23.56 4.57 28.13 22.56 28.13 30.81 19.88 30.81 15.15 21.18 24.79 3.34 24.79 3.34 15.87 15.87 3.34 30.81 3.34 30.81 0Z" fill="#4F00B5" clip-path="url(#SVGID_2_)"></path><path d="M19.49 9.59 11.24 17.85 11.24 22.57 20.88 12.94 38.71 12.94 38.71 21.85 26.18 34.38 11.24 34.38 11.24 37.72 27.56 37.72 42.05 23.24 42.05 14.16 37.49 9.59Z" fill="#4F00B5" clip-path="url(#SVGID_2_)"></path></g></svg>