<svg viewBox="0 0 1000 1000" xmlns="http://www.w3.org/2000/svg" xmlns:xlink="http://www.w3.org/1999/xlink" id="Layer_1" xml:space="preserve" overflow="hidden"><g><path d="M336.73 557.44C420.83 557.44 489.26 489.02 489.26 404.91 489.26 320.81 420.84 252.39 336.73 252.39 252.63 252.39 184.21 320.81 184.21 404.91 184.21 489.02 252.63 557.44 336.73 557.44ZM249 404.91C249 356.54 288.36 317.19 336.73 317.19 385.1 317.19 424.46 356.54 424.46 404.91 424.46 453.29 385.1 492.64 336.73 492.64 288.36 492.64 249 453.29 249 404.91Z" fill="#4F00B5"></path><path d="M169.46 622.92 85 707.52 85 832.92 155 832.92 155 693.92 518 693.92 518 832.92 588 832.92 588 707.52 503.54 622.92Z" fill="#4F00B5"></path><path d="M663.26 472.13C747.37 472.13 815.79 403.71 815.79 319.6 815.79 235.5 747.37 167.08 663.26 167.08 579.16 167.08 510.74 235.5 510.74 319.6 510.74 403.71 579.16 472.13 663.26 472.13ZM575.53 319.6C575.53 271.23 614.89 231.88 663.26 231.88 711.63 231.88 751 271.23 751 319.6 751 367.98 711.64 407.33 663.27 407.33 614.9 407.33 575.53 367.98 575.53 319.6Z" fill="#4F00B5"></path><path d="M830.98 537.92 491.87 537.92 561.88 607.92 845 607.92 845 747.92 915 747.92 915 622.52Z" fill="#4F00B5"></path></g></svg>