<svg viewBox="0 0 1000 1000" xmlns="http://www.w3.org/2000/svg" xmlns:xlink="http://www.w3.org/1999/xlink" id="Layer_1" xml:space="preserve" overflow="hidden"><g><g><path d="M500 253.6C251.1 253.6 48.6 456.1 48.6 705L48.6 741.37 248.69 741.53 247.93 669.43 122.48 668.67C129.4 596.01 156.92 527.71 202.44 470.19L283.67 551.42 334.68 500.41 252.37 418.1C281.6 392.83 314.27 372.28 349.6 356.96 385.99 341.18 424.41 331.3 463.95 327.56L463.95 451.66 536.09 451.66 536.09 327.56C575.09 331.26 613.02 340.92 648.97 356.34 683.86 371.3 716.2 391.36 745.22 416.03L725.94 435.31 776.95 486.32 795.56 467.72C842.31 525.77 870.52 594.93 877.55 668.68L752.13 669.44 751.36 741.54 951.41 741.38 951.41 705.01C951.4 456.1 748.9 253.6 500 253.6Z" fill="#4F00B5"></path><path d="M695.62 455.06 473.16 677.52 472.83 677.84C465.24 685.42 461.07 695.51 461.07 706.24 461.07 716.97 465.25 727.05 472.83 734.64 480.41 742.22 490.5 746.4 501.23 746.4 511.96 746.4 522.04 742.22 529.63 734.64L752.42 511.84 695.62 455.06Z" fill="#4F00B5"></path></g><path d="" fill="#4F00B5"></path><path d="M436.14 354.51 434.55 354.76C384.29 362.82 335.8 382.81 294.31 412.57L288.83 416.5 288.98 416.71 335.34 463.07C365.55 442.08 400.16 427.44 436.14 420.41L436.14 354.51Z" fill="#4F00B5"></path><path d="M697.73 405.17C660.83 380.56 620.19 363.88 576.94 355.6L565.8 354.56 565.8 419.59C596.78 425.66 626.19 437.14 653.24 453.75L661.59 460.34 708.39 413.54 697.73 405.17Z" fill="#4F00B5"></path><path d="M785.9 640.47 851.55 640.47 850.51 632.58C842.61 590.13 826.6 550.11 802.94 513.62L798.4 506.62 751.5 553.52 754.17 558.03C769.36 583.62 780.01 611.34 785.9 640.47Z" fill="#4F00B5"></path><path d="M216.1 642.43C222.32 610.82 234.08 581 251.12 553.63L204.2 506.71 201.51 510.75C176.67 548.07 159.93 589.26 151.75 633.18L150.47 642.43 216.1 642.43Z" fill="#4F00B5"></path></g></svg>