<svg viewBox="0 0 1000 1000" xmlns="http://www.w3.org/2000/svg" xmlns:xlink="http://www.w3.org/1999/xlink" id="Layer_1" xml:space="preserve" overflow="hidden"><g><path d="M281.15 666.27 281.15 738.08 281.15 783.44 281.15 805.63 649.88 805.63 841.7 613.81 841.7 487.86 776.24 422.39 536.71 422.39 462.1 497.01 462.1 592.54 564.69 489.95 774.14 489.95 774.14 585.82 621.9 738.08 349.99 738.08 349.99 737.32Z" fill="#4F00B5"></path><path d="M678.08 855.02 229.21 857.08 228.96 320.64 395.7 143.39 689.32 143.39 719.86 173.61 439.34 175.4 281.15 333.58 281.15 435 469.22 246.92 772.08 245 772.08 300.22 472.98 300.22 281.15 492.04 281.15 617.99 346.62 683.46 595.31 683.46 665.86 612.9 665.86 517.38 567.33 615.9 348.71 615.9 348.71 520.02 500.96 367.77 840.91 367.77 840.91 325.22 840.91 300.22 840.91 244.56 840.91 215.93 840.91 192.54 718.8 71.68 361.1 71.68 362.09 73.98C361.29 74.48 360.54 75.07 359.86 75.75L158.03 291.66 158.03 314.63 158.03 314.63 158.03 320.49 158.03 396.04 158.07 396 158.3 850.68 235.94 928.32 707.95 926.57 841.98 792.55 841.98 691.13 678.08 855.02Z" fill="#4F00B5"></path></g></svg>