<svg viewBox="0 0 1000 1000" xmlns="http://www.w3.org/2000/svg" xmlns:xlink="http://www.w3.org/1999/xlink" id="Layer_1" xml:space="preserve" overflow="hidden"><g><path d="M681.3 226.59 628.7 226.59 628.7 107.13 371.3 107.13 371.3 226.58 318.7 226.58 247.89 226.58 247.89 297.39 247.89 857.44 247.89 928.25 318.7 928.25 592.78 928.25 622.19 928.25 642.95 907.41 731.48 818.54 752.13 797.82 752.13 768.57 752.13 297.4 752.13 226.59 681.3 226.59ZM442.12 177.95 557.89 177.95 557.89 225.83 442.12 225.83 442.12 177.95ZM681.3 768.59 592.77 857.46 318.7 857.46 318.7 297.4 681.3 297.4 681.3 768.59Z" fill="#4F00B5"></path><path d="M557.41 546.03 538 546.03 538 445.83 538 414.96 489.35 414.96 480.39 428.54 398.73 552.26 398.73 607.53 420.6 607.53 439.12 607.53 439.12 709.03 439.12 739.9 487.77 739.9 496.73 726.33 578.2 602.95 578.2 546.03 557.41 546.03Z" fill="#4F00B5"></path></g></svg>