<svg viewBox="0 0 1000 1000" xmlns="http://www.w3.org/2000/svg" xmlns:xlink="http://www.w3.org/1999/xlink" id="Layer_1" xml:space="preserve" overflow="hidden"><g><g><path d="M500 879.86C448.73 879.86 398.98 869.81 352.13 849.99 306.89 830.86 266.27 803.47 231.4 768.6 196.53 733.73 169.14 693.1 150.01 647.87 130.19 601.02 120.14 551.26 120.14 500 120.14 448.74 130.19 398.98 150 352.13 169.13 306.89 196.52 266.27 231.39 231.4 266.26 196.53 306.88 169.14 352.12 150.01 398.97 130.19 448.73 120.14 499.99 120.14 551.26 120.14 601.01 130.19 647.86 150.01 693.1 169.14 733.72 196.53 768.59 231.4 803.47 266.28 830.85 306.9 849.98 352.13 869.8 398.98 879.85 448.74 879.85 500 879.85 551.26 869.81 601.02 850 647.87 830.87 693.11 803.48 733.73 768.61 768.6 733.74 803.47 693.12 830.86 647.88 849.99 601.02 869.81 551.27 879.86 500 879.86ZM500 192.14C417.77 192.14 340.46 224.16 282.31 282.31 224.16 340.46 192.14 417.77 192.14 500 192.14 582.23 224.16 659.54 282.31 717.69 340.46 775.84 417.77 807.86 500 807.86 582.23 807.86 659.54 775.84 717.69 717.69 775.84 659.54 807.86 582.23 807.86 500 807.86 417.77 775.84 340.46 717.69 282.31 659.54 224.16 582.23 192.14 500 192.14Z" fill="#4F00B5"></path></g><g><path d="M577.01 310.07 577.01 383.23C614.9 408.3 639.98 451.26 639.98 500 639.98 577.19 577.19 639.98 500 639.98 422.81 639.98 360.02 577.19 360.02 500 360.02 451.26 385.09 408.3 422.99 383.23L422.99 310.07C348.02 340.58 295.01 414.2 295.01 500 295.01 613.04 386.97 705 500.01 705 613.05 705 705.01 613.04 705.01 500 705 414.2 651.99 340.58 577.01 310.07Z" fill="#4F00B5"></path></g><g><rect x="464" y="257.4" width="72" height="204.89" fill="#4F00B5"></rect></g></g></svg>