<svg viewBox="0 0 1000 1000" xmlns="http://www.w3.org/2000/svg" xmlns:xlink="http://www.w3.org/1999/xlink" id="Layer_1" xml:space="preserve" overflow="hidden"><path d="M723.68 220.5 723.67 220.5 723.66 219.5 499.75 220.5 275.84 220.5 275.83 220.5 275.82 220.5 134 362.04 134 500.5 413.67 779.5 499.75 780.5 585.84 780.5 866 500.01 866 362.53 723.68 220.5ZM456.64 396.5 497.76 325.28 538.88 396.5 456.64 396.5ZM563.03 467.5 500 678.39 436.97 467.5 563.03 467.5ZM599.59 358.77 561.91 293.5 637.27 293.5 599.59 358.77ZM395.93 358.77 358.25 293.5 433.62 293.5 395.93 358.77ZM335.21 396.5 203.1 396.5 286.85 312.75 335.21 396.5ZM660.31 396.5 710.12 310.22 796.4 396.5 660.31 396.5ZM204.11 467.5 362.43 467.5 429.92 693.31 204.11 467.5ZM570.57 691.65 637.57 467.5 794.73 467.5 570.57 691.65Z" fill="#4F00B5"></path></svg>