<svg viewBox="0 0 1000 1000" xmlns="http://www.w3.org/2000/svg" xmlns:xlink="http://www.w3.org/1999/xlink" id="Layer_1" xml:space="preserve" overflow="hidden"><g><path d="M336.73-648.77C420.83-648.77 489.26-717.19 489.26-801.3 489.26-885.4 420.84-953.82 336.73-953.82 252.63-953.82 184.21-885.4 184.21-801.3 184.21-717.19 252.63-648.77 336.73-648.77ZM249-801.3C249-849.67 288.36-889.02 336.73-889.02 385.1-889.02 424.46-849.67 424.46-801.3 424.46-752.92 385.1-713.57 336.73-713.57 288.36-713.57 249-752.92 249-801.3Z" fill="#4F00B5"></path><path d="M169.46-583.29 85-498.69 85-373.29 155-373.29 155-512.29 518-512.29 518-373.29 588-373.29 588-498.69 503.54-583.29Z" fill="#4F00B5"></path><path d="M663.26-734.08C747.37-734.08 815.79-802.5 815.79-886.61 815.79-970.71 747.37-1039.13 663.26-1039.13 579.16-1039.13 510.74-970.71 510.74-886.61 510.74-802.5 579.16-734.08 663.26-734.08ZM575.53-886.61C575.53-934.98 614.89-974.33 663.26-974.33 711.63-974.33 751-934.98 751-886.61 751-838.23 711.64-798.88 663.27-798.88 614.9-798.88 575.53-838.23 575.53-886.61Z" fill="#4F00B5"></path><path d="M830.98-668.29 491.87-668.29 561.88-598.29 845-598.29 845-458.29 915-458.29 915-583.69Z" fill="#4F00B5"></path></g><g><g><g><path d="M470.54 738.17 251 518.63 251 342.23 284.4 308.82C334.3 258.93 400.65 231.45 471.21 231.45 526.1 231.45 578.44 248.08 622.47 278.95L674.68 226.74C542.65 126.69 353.18 136.83 232.79 257.2L178 312.01 178 548.76 470.43 841.19 762 549.6 762 446.77 470.54 738.17Z" fill="#4F00B5"></path></g></g><path d="M769.04 233.85 464.63 538.26 324 397.64 324 489.84 470.01 635.87 821.49 284.4Z" fill="#4F00B5"></path></g></svg>