<svg viewBox="0 0 72 72" xmlns="http://www.w3.org/2000/svg" xmlns:xlink="http://www.w3.org/1999/xlink" id="Layer_1" xml:space="preserve" overflow="hidden"><g><g><path d="M36 64.5C20.3 64.5 7.5 51.7 7.5 36 7.5 20.3 20.3 7.5 36 7.5 51.7 7.5 64.5 20.3 64.5 36 64.5 51.7 51.7 64.5 36 64.5ZM36 13.5C23.6 13.5 13.5 23.6 13.5 36 13.5 48.4 23.6 58.5 36 58.5 48.4 58.5 58.5 48.4 58.5 36 58.5 23.6 48.4 13.5 36 13.5Z" fill="#4F00B5"></path></g><g><g><path d="M36 50.8 22.3 37.1 22.3 28.6 36 42.3 49.8 28.6 49.7 37.1Z" fill="#4F00B5"></path></g></g></g></svg>