<svg width="1406.97" height="791.42" viewBox="0 0 1406.97 791.42" xmlns="http://www.w3.org/2000/svg" xmlns:xlink="http://www.w3.org/1999/xlink" overflow="visible"><defs></defs><g><defs><rect x="804.18" y="532.61" width="38.86" height="22.77" id="SVGID_1_" transform="matrix(0.7071 -0.7071 0.7071 0.7071 -143.431 741.712)"></rect></defs><clipPath id="SVGID_2_"><use width="100%" height="100%" xlink:href="#SVGID_1_" overflow="visible"></use></clipPath><g clip-path="url(#SVGID_2_)"><defs><rect x="804.18" y="532.61" width="38.86" height="22.77" id="SVGID_3_" transform="matrix(0.7071 -0.7071 0.7071 0.7071 -143.432 741.709)"></rect></defs><clipPath id="SVGID_4_"><use width="100%" height="100%" xlink:href="#SVGID_3_" overflow="visible"></use></clipPath><g clip-path="url(#SVGID_4_)"><defs><rect x="0" y="0" width="1406.97" height="791.42" id="SVGID_5_"></rect></defs><clipPath id="SVGID_6_"><use width="100%" height="100%" xlink:href="#SVGID_5_" overflow="visible"></use></clipPath><path d="M837.35 530.25C832.91 525.81 825.69 525.81 821.25 530.25 816.81 534.69 816.81 541.91 821.25 546.35 825.69 550.79 832.91 550.79 837.35 546.35 841.79 541.91 841.79 534.69 837.35 530.25M824.36 543.24C821.64 540.52 821.64 536.08 824.36 533.36 827.08 530.64 831.52 530.64 834.24 533.36 836.96 536.08 836.96 540.52 834.24 543.24 831.52 545.97 827.09 545.97 824.36 543.24" fill="#4F00B5" clip-path="url(#SVGID_6_)"></path><path d="M808.31 556.18 811.42 559.29 821.44 549.27 815.23 549.27Z" fill="#4F00B5" clip-path="url(#SVGID_6_)"></path></g></g></g></svg>