<svg viewBox="0 0 1000 1000" xmlns="http://www.w3.org/2000/svg" xmlns:xlink="http://www.w3.org/1999/xlink" id="Layer_1" xml:space="preserve" overflow="hidden"><path d="M714.58 400.69 714.58 204.91C714.58 137.46 659.7 82.58 592.25 82.58L407.76 82.58C340.31 82.58 285.43 137.46 285.43 204.91L285.43 436.29 225.14 496.6 225.14 807.18 225.14 879.06 297.06 879.06 679.01 879.06 774.89 783.15 774.89 472.58 774.89 400.7 714.58 400.7ZM407.76 159.29 592.25 159.29C617.4 159.29 637.87 179.75 637.87 204.91L637.87 400.7 362.14 400.7 362.14 204.91C362.14 179.75 382.6 159.29 407.76 159.29ZM297.04 807.18 297.04 478.4 702.95 478.4 702.95 807.18 297.04 807.18Z" fill="#4F00B5"></path></svg>