<svg viewBox="0 0 1000 1000" xmlns="http://www.w3.org/2000/svg" xmlns:xlink="http://www.w3.org/1999/xlink" id="Layer_1" xml:space="preserve" overflow="hidden"><g><path d="M250.66 473.03 212 434.37 152.95 434.37 191.61 473.03Z" fill="#4F00B5"></path><path d="M148.69 597.59 187.35 636.25 281.48 636.25 242.82 597.59Z" fill="#4F00B5"></path><path d="M814.77 358.86 824.66 348.97 837.28 361.59 868.52 330.35 812.86 274.69 781.62 305.93 793.41 317.72 783.52 327.61C739.9 290.43 686.34 268.24 629.2 263.69L629.2 236.43 672.87 236.43 672.87 192.25 541.35 192.25 541.35 236.43 585.02 236.43 585.02 263.69C520.57 268.83 460.67 296.38 414.45 342.6 387.84 369.21 367.43 400.36 353.91 434.29L262.66 434.29 301.32 472.95 341.78 472.95C338.71 486.14 336.61 499.62 335.53 513.3L42.49 513.3 81.15 551.96 335.16 551.96C335.98 565.55 337.79 578.95 340.56 592.08L288.03 592.08 326.69 630.74 351.78 630.74C365.25 666.81 386.4 699.89 414.44 727.93 465.9 779.39 534.33 807.73 607.11 807.73 679.89 807.73 748.31 779.39 799.78 727.93 851.25 676.47 879.58 608.04 879.58 535.26 879.58 469.91 856.71 408.07 814.77 358.86ZM629.2 732.51 629.2 696.81 585.02 696.81 585.02 732.51C492.26 722.19 418.6 647.69 409.58 554.55L442.76 554.55 442.76 510.37 410.2 510.37C421.58 419.87 494.14 348.16 585.02 338.05L585.02 368.11 629.2 368.11 629.2 338.05C720.08 348.16 792.64 419.88 804.02 510.37L771.46 510.37 771.46 554.55 804.64 554.55C795.63 647.69 721.96 722.19 629.2 732.51Z" fill="#4F00B5"></path><path d="M707.5 403.64 631.13 480.01C623.76 476.8 615.64 475 607.11 475 573.87 475 546.83 502.04 546.83 535.27 546.83 543.81 548.62 551.93 551.84 559.29L531.1 580.03 562.34 611.27 583.08 590.53C590.45 593.74 598.57 595.54 607.1 595.54 640.34 595.54 667.38 568.5 667.38 535.26 667.38 526.72 665.59 518.6 662.37 511.24L738.74 434.87 707.5 403.64ZM607.11 551.37C598.24 551.37 591.02 544.15 591.02 535.28 591.02 526.41 598.24 519.19 607.11 519.19 615.98 519.19 623.2 526.41 623.2 535.28 623.2 544.15 615.98 551.37 607.11 551.37Z" fill="#4F00B5"></path></g></svg>