<svg viewBox="0 0 1080 1080" xmlns="http://www.w3.org/2000/svg" xmlns:xlink="http://www.w3.org/1999/xlink" id="Layer_1" xml:space="preserve" overflow="hidden"><g><path d="M850.33 281.87 822.31 281.87 395.6 281.87 395.48 281.87 153.38 523.95 153.38 721.83 229.68 798.13 257.69 798.13 684.4 798.13 684.53 798.13 926.61 556.05 926.61 358.17 850.33 281.87ZM418.73 337.72 827.67 337.72 652.95 516.27 240.04 516.27 257.69 498.62 257.69 498.74 418.73 337.72ZM209.24 742.29 209.24 577.89 635.11 577.89 635.11 742.29 209.24 742.29ZM822.31 581.38 822.31 581.26 696.72 706.84 696.72 559.64 870.78 381.76 870.78 532.91 822.31 581.38Z" fill="#4F00B5"></path><rect x="525.85" y="637.65" width="54.66" height="54.66" fill="#4F00B5"></rect><rect x="263.89" y="637.65" width="207.3" height="54.66" fill="#4F00B5"></rect></g></svg>