<svg width="41.11" height="34.94" viewBox="0 0 41.11 34.94" xmlns="http://www.w3.org/2000/svg" xmlns:xlink="http://www.w3.org/1999/xlink" overflow="visible"><defs></defs><g><defs><rect x="0" y="0" width="41.11" height="34.94" id="SVGID_1_"></rect></defs><clipPath id="SVGID_2_"><use width="100%" height="100%" xlink:href="#SVGID_1_" overflow="visible"></use></clipPath><path d="M35.25 15.26 22.8 15.26 22.8 19.66 32.99 19.66C29.04 26.33 21.77 30.54 13.94 30.54L13.94 34.94C23.29 34.94 31.97 29.92 36.72 21.99L36.72 33.58 41.12 33.58 41.12 21.13 35.25 15.26Z" fill="#4F00B5" clip-path="url(#SVGID_2_)"></path><path d="M18.31 15.28 8.12 15.28C12.08 8.61 19.34 4.4 27.18 4.4L27.18 0C17.83 0 9.15 5.02 4.4 12.95L4.4 1.37 0 1.37 0 13.82 5.86 19.68 18.31 19.68 18.31 15.28Z" fill="#4F00B5" clip-path="url(#SVGID_2_)"></path></g></svg>