<svg viewBox="0 0 1000 1000" xmlns="http://www.w3.org/2000/svg" xmlns:xlink="http://www.w3.org/1999/xlink" id="Layer_1" xml:space="preserve" overflow="hidden"><g><g><path d="M151.84 678.8 206.35 624.29C203.43 617.67 200.68 610.96 198.2 604.12L121.69 604.12C129.24 630.21 139.37 655.2 151.84 678.8Z" fill="#4F00B5"></path><path d="M504.14 95.24C330.9 95.24 183.23 206.47 128.58 361.23L206.99 361.23C257.77 247.56 371.82 168.11 504.15 168.11 683.55 168.11 829.5 314.06 829.5 493.46 829.5 623.93 752.27 736.64 641.15 788.46L641.15 867.4C793.44 811.43 902.37 664.93 902.37 493.47 902.37 273.88 723.73 95.24 504.14 95.24Z" fill="#4F00B5"></path><path d="M398.26 801.03C392.09 798.9 385.99 796.63 380 794.14L325.13 849.01C348.31 860.73 372.77 870.24 398.26 877.28L398.26 801.03Z" fill="#4F00B5"></path></g><g><path d="M149.16 904.76 483.28 570.64 483.28 808.44 556.13 808.44 556.14 543.39 458.98 446.23 193.94 446.24 193.94 519.11 431.75 519.12 97.63 853.23Z" fill="#4F00B5"></path></g><path d="M504.14 257.93C423.25 257.93 351.79 298.94 309.36 361.23L409.77 361.23C436.42 342.16 468.94 330.81 504.14 330.81 593.83 330.81 666.8 403.79 666.8 493.47 666.8 525.61 657.31 555.52 641.16 580.78L641.16 684.67C700.69 641.88 739.68 572.21 739.68 493.47 739.67 363.59 634.02 257.93 504.14 257.93Z" fill="#4F00B5"></path></g></svg>